Coordinates
version=1
nRows=13
nColumns=40
inDegrees=yes

Units are S.I. units (second, meters, Newtons, ...)
Angles are in degrees.

endheader
time	pelvis_tilt	pelvis_list	pelvis_rotation	pelvis_tx	pelvis_ty	pelvis_tz	hip_flexion_r	hip_adduction_r	hip_rotation_r	knee_angle_r	knee_angle_r_beta	ankle_angle_r	subtalar_angle_r	mtp_angle_r	hip_flexion_l	hip_adduction_l	hip_rotation_l	knee_angle_l	knee_angle_l_beta	ankle_angle_l	subtalar_angle_l	mtp_angle_l	lumbar_extension	lumbar_bending	lumbar_rotation	arm_flex_r	arm_add_r	arm_rot_r	elbow_flex_r	pro_sup_r	wrist_flex_r	wrist_dev_r	arm_flex_l	arm_add_l	arm_rot_l	elbow_flex_l	pro_sup_l	wrist_flex_l	wrist_dev_l
     45.32500000	     -5.00102557	     -6.42535280	      4.78920984	      0.93470684	      0.91905050	      0.46464413	     -1.44212948	      7.14020825	    -20.58979886	      6.83354969	      6.83354969	     15.97798695	      8.14592322	     -4.96598305	     33.19276820	     -7.63466135	     -4.49947335	     19.85203037	     19.85203037	      3.63745451	     -9.62312611	      9.13697423	     -7.15505429	      6.66086721	      5.00088697	     44.35708786	    -16.40823591	     -6.19147669	     89.26295810	     44.86225760	      0.00000000	      0.00000000	    -11.73626202	     -7.80185574	      7.01401231	     25.02032740	     44.30191930	      0.00000000	      0.00000000
     45.33750000	     -5.18125761	     -6.37239164	      4.65250155	      0.93608836	      0.91776698	      0.46278971	     -1.59168026	      6.84300826	    -20.46785666	      7.49445261	      7.49445261	     16.89470843	      8.12963295	     -3.80591702	     32.94219818	     -7.23009121	     -3.32951576	     20.68411578	     20.68411578	      2.53867322	    -11.83577875	      8.48304356	     -6.84618404	      6.64554594	      5.17679864	     43.88089833	    -16.59184913	     -6.36645668	     89.93753121	     44.85923511	      0.00000000	      0.00000000	    -12.14363121	     -7.81682338	      6.82366427	     25.56812683	     44.36592407	      0.00000000	      0.00000000
     45.35000000	     -5.19844108	     -6.23402059	      4.44667641	      0.93777009	      0.91689522	      0.46100705	     -2.13745412	      6.53621949	    -20.24923463	      7.72340398	      7.72340398	     17.28134985	      8.19731071	     -3.68907992	     32.51477079	     -7.02088367	     -3.14312371	     21.59123456	     21.59123456	      2.29244659	    -12.29927160	      8.27732209	     -6.70537882	      6.51475931	      5.27859204	     43.46181574	    -16.63194865	     -6.40305991	     89.89932787	     44.86296933	      0.00000000	      0.00000000	    -12.44760172	     -7.74251129	      6.79443217	     25.53845000	     44.37402903	      0.00000000	      0.00000000
     45.36250000	     -5.34724000	     -6.09905194	      4.21306491	      0.93936092	      0.91606333	      0.45894536	     -2.35971627	      6.12116457	    -20.05628836	      8.31626148	      8.31626148	     17.84317762	      8.21844192	     -3.11940262	     32.18061100	     -6.71021268	     -2.66311988	     22.27877792	     22.27877792	      1.88963571	    -13.30022942	      7.91516632	     -6.43927789	      6.41552156	      5.48917356	     42.75166133	    -16.83203791	     -6.62071563	     89.95906488	     44.87443860	      0.00000000	      0.00000000	    -12.66461901	     -7.60913484	      6.66039858	     25.68538228	     44.41881026	      0.00000000	      0.00000000
     45.37500000	     -5.35700911	     -5.91016293	      4.03001938	      0.94102133	      0.91570214	      0.45676878	     -2.81080154	      5.68615900	    -19.86420089	      8.72134264	      8.72134264	     18.06051162	      8.20205249	     -2.98801104	     31.72013116	     -6.41507666	     -2.49875625	     22.93505665	     22.93505665	      1.94332729	    -13.78603718	      7.70170709	     -6.33463247	      6.28017996	      5.48776924	     41.96220500	    -16.80116784	     -6.64250587	     89.78983050	     44.88024784	      0.00000000	      0.00000000	    -12.72992287	     -7.56735893	      6.61199757	     25.69125438	     44.43444055	      0.00000000	      0.00000000
     45.38750000	     -5.48929918	     -5.71024691	      3.83237898	      0.94241005	      0.91549446	      0.45430317	     -2.83329103	      5.08958310	    -19.71762842	      9.68950322	      9.68950322	     18.43100670	      8.06675918	     -2.71614028	     31.40104842	     -6.04448355	     -2.21011247	     23.46654551	     23.46654551	      1.95961139	    -14.56787974	      7.48248896	     -6.14266770	      6.15425001	      5.65971417	     40.95211881	    -16.96961966	     -6.90457127	     89.45951890	     44.90194064	      0.00000000	      0.00000000	    -12.58432746	     -7.43732553	      6.48068319	     25.76401090	     44.47955758	      0.00000000	      0.00000000
     45.40000000	     -5.55198036	     -5.49960591	      3.66723240	      0.94371334	      0.91576951	      0.45165588	     -2.90037066	      4.46304744	    -19.58989601	     10.67394547	     10.67394547	     18.62296601	      7.94862794	     -2.54932591	     30.99607150	     -5.68981667	     -2.07493430	     23.89962899	     23.89962899	      2.21220590	    -15.09896462	      7.32030948	     -6.07430499	      6.04093048	      5.71410029	     39.81545224	    -17.00271124	     -7.13026971	     88.99085698	     44.92563273	      0.00000000	      0.00000000	    -12.30741654	     -7.31363920	      6.36180259	     25.77141728	     44.52400708	      0.00000000	      0.00000000
     45.41250000	     -5.60382790	     -5.29828729	      3.52831727	      0.94486892	      0.91639662	      0.44880018	     -2.83281174	      3.77952896	    -19.47866804	     11.90439130	     11.90439130	     18.70619415	      7.75407503	     -2.57086058	     30.57639077	     -5.34635150	     -2.02573124	     24.25124194	     24.25124194	      2.61539184	    -15.50688294	      7.24548596	     -6.02977810	      5.95999146	      5.74492287	     38.57745652	    -17.02273459	     -7.36058275	     88.28308456	     44.95594594	      0.00000000	      0.00000000	    -11.87793717	     -7.18583465	      6.24934913	     25.78522320	     44.56834867	      0.00000000	      0.00000000
     45.42500000	     -5.63920645	     -5.10003672	      3.40410533	      0.94588448	      0.91734443	      0.44577818	     -2.61917688	      3.02777459	    -19.35554445	     13.41371428	     13.41371428	     18.67907726	      7.48970812	     -2.79533636	     30.10449991	     -5.00569772	     -2.04411684	     24.49675426	     24.49675426	      3.13931293	    -15.80218165	      7.25391565	     -6.03372078	      5.89829897	      5.74679040	     37.22441093	    -17.01655799	     -7.60448030	     87.32140585	     44.99372877	      0.00000000	      0.00000000	    -11.31484425	     -7.07513929	      6.13755835	     25.82178271	     44.61351271	      0.00000000	      0.00000000
     45.43750000	     -5.67793313	     -4.92267030	      3.29747596	      0.94674620	      0.91852452	      0.44261351	     -2.21593143	      2.22270382	    -19.22128840	     15.23872527	     15.23872527	     18.51565158	      7.13902992	     -3.27096318	     29.58898213	     -4.67854205	     -2.11669976	     24.62119288	     24.62119288	      3.72886502	    -15.99840642	      7.38206866	     -6.03586294	      5.88163183	      5.73563863	     35.80004690	    -16.97224036	     -7.91348564	     86.04670580	     45.04347962	      0.00000000	      0.00000000	    -10.61556030	     -6.96124754	      6.00747573	     25.87930376	     44.66550414	      0.00000000	      0.00000000
     45.45000000	     -5.67829295	     -4.72411997	      3.18681243	      0.94754059	      0.91992096	      0.43938200	     -1.67136613	      1.32926138	    -19.00636332	     17.37839721	     17.37839721	     18.21599417	      6.65413682	     -3.97032545	     28.96244355	     -4.35050362	     -2.30980861	     24.62168218	     24.62168218	      4.34566937	    -16.03734288	      7.46966649	     -6.11102293	      5.84191583	      5.71940414	     34.29679061	    -16.92809973	     -8.16971814	     84.55857478	     45.09677920	      0.00000000	      0.00000000	     -9.82413650	     -6.87982609	      5.88938615	     26.05543245	     44.71230848	      0.00000000	      0.00000000
     45.46250000	     -5.69919224	     -4.56940083	      3.07860946	      0.94819812	      0.92133086	      0.43614228	     -0.89692265	      0.42363380	    -18.70512885	     19.85271306	     19.85271306	     17.69738410	      6.01826166	     -5.01729176	     28.31629691	     -4.06374368	     -2.51643855	     24.53037404	     24.53037404	      4.97745037	    -15.97705009	      7.58277820	     -6.15504758	      5.85069173	      5.70140987	     32.75749818	    -16.82766977	     -8.49669429	     82.69292126	     45.16427830	      0.00000000	      0.00000000	     -8.95948176	     -6.83442273	      5.74465205	     26.29935360	     44.76495134	      0.00000000	      0.00000000
     45.47500000	     -5.70081104	     -4.44087291	      2.97680147	      0.94883429	      0.92272320	      0.43295829	      0.02336567	     -0.47605659	    -18.26696968	     22.57576897	     22.57576897	     16.89863379	      5.14558707	     -6.47337251	     27.60701428	     -3.81276354	     -2.77308187	     24.36912851	     24.36912851	      5.59777704	    -15.80669923	      7.66213829	     -6.17081437	      5.88954685	      5.66380236	     31.23995919	    -16.64340804	     -8.86151304	     80.46680761	     45.24447422	      0.00000000	      0.00000000	     -8.04590257	     -6.82017613	      5.56615512	     26.65587713	     44.82369492	      0.00000000	      0.00000000
